<?xml version="1.0" encoding="UTF-8"?>
<svg id="Layer_1" xmlns="http://www.w3.org/2000/svg" xmlns:xlink="http://www.w3.org/1999/xlink" viewBox="0 0 448.31 111.72">
  <defs>
    <linearGradient id="linear-gradient" x1="314.99" y1="39.8" x2="333.2" y2="39.8" gradientUnits="userSpaceOnUse">
      <stop offset="0" stop-color="#44b65e"/>
      <stop offset="1" stop-color="#0ada50"/>
    </linearGradient>
    <linearGradient id="linear-gradient-2" x1="211.55" y1="102.87" x2="228.28" y2="66.89" xlink:href="#linear-gradient"/>
    <linearGradient id="linear-gradient-3" x1="436.21" y1="92.24" x2="448.31" y2="92.24" xlink:href="#linear-gradient"/>
    <linearGradient id="linear-gradient-4" x1="54.1" y1="65.04" x2="74.6" y2="65.04" gradientUnits="userSpaceOnUse">
      <stop offset="0" stop-color="#44b65e"/>
      <stop offset="1" stop-color="#0ada50"/>
    </linearGradient>
  </defs>
  <path d="M.51,94.39l4.3-5.15c1.4-1.67,3.94-1.97,5.57-.53,2.11,1.85,4.32,2.81,6.73,2.81,4.55,0,6.98-2.75,6.98-8.01v-31.47H5.11v-.45c0-6.38,5.17-11.55,11.55-11.55h22.82v42.54c0,14.28-7.38,21.35-21.19,21.35-7.21,0-13.4-2.29-17.66-6.59-.79-.8-.85-2.08-.13-2.94Z" fill="#fff"/>
  <path d="M149.21,73.62c0,13.58-9.34,22.05-20.87,22.05-5.57,0-9.73-1.57-12.56-4.94v4.24h-14.2v-43.32c0-8.23,6.68-14.91,14.91-14.91h0v19.39c2.9-2.98,6.91-4.4,11.85-4.4,11.54,0,20.87,8.4,20.87,21.9ZM134.14,73.62c0-6.44-3.92-10.05-8.95-10.05s-8.95,3.61-8.95,10.05,3.92,10.2,8.95,10.2,8.95-3.69,8.95-10.2Z" fill="#fff"/>
  <path d="M154.73,86.76h0c1.29-2.94,4.61-4.34,7.66-3.34,3.06,1.01,6.47,1.57,9.67,1.57,5.02,0,6.67-1.1,6.67-2.9,0-5.73-25.11.79-25.11-16.24,0-8.01,7.38-14.13,20.72-14.13,3.81,0,7.89.51,11.44,1.5,2.95.82,4.5,4.05,3.26,6.85l-.39.89c-1.05,2.38-3.74,3.46-6.21,2.63-2.79-.93-5.51-1.28-8.02-1.28-5.02,0-6.83,1.41-6.83,2.98,0,5.89,25.03-.47,25.03,16.4,0,7.85-7.22,13.97-21.03,13.97-4.88,0-9.87-.82-13.87-2.16-2.79-.93-4.16-4.06-2.98-6.75Z" fill="#fff"/>
  <path d="M309.04,49.14l-19.14,44.65c-.31.72-1.01,1.18-1.79,1.18h-12.74c-.78,0-1.48-.46-1.79-1.18l-19.07-44.65c-1.84-4.31,1.32-9.1,6.01-9.1h6.9l13.13,31.52c.66,1.59,2.91,1.6,3.58.01l13.42-31.54h5.47c4.69,0,7.85,4.8,6.01,9.11Z" fill="#fff"/>
  <path d="M314.99,39.8c0-4.47,3.61-7.93,9.1-7.93s9.1,3.22,9.1,7.69c0,4.71-3.61,8.16-9.1,8.16s-9.1-3.45-9.1-7.93Z" fill="url(#linear-gradient)"/>
  <path d="M316.64,52.43h14.91v35.13c0,4.09-3.32,7.41-7.41,7.41h-7.5v-42.54Z" fill="#fff"/>
  <path d="M340,86.33l.07-.17c1.14-2.6,4.09-3.89,6.76-2.94,3.22,1.14,6.88,1.79,10.3,1.79,5.02,0,6.67-1.1,6.67-2.9,0-5.73-25.11.79-25.11-16.24,0-8.01,7.38-14.13,20.72-14.13,3.64,0,7.51.47,10.94,1.37,3.22.85,4.9,4.4,3.55,7.45h0c-1.11,2.51-3.93,3.86-6.54,3.01-2.74-.89-5.41-1.23-7.87-1.23-5.02,0-6.83,1.41-6.83,2.98,0,5.89,25.03-.47,25.03,16.4,0,7.85-7.22,13.97-21.03,13.97-4.69,0-9.49-.76-13.41-2.01-3.05-.97-4.53-4.41-3.25-7.34Z" fill="#fff"/>
  <path d="M424.25,52.43h-10.05v3.69c-2.9-2.98-6.91-4.4-11.85-4.4-11.54,0-20.88,8.4-20.88,21.9s9.34,22.05,20.88,22.05c5.57,0,9.73-1.57,12.56-4.94v4.24h14.2v-37.68c0-2.68-2.18-4.86-4.86-4.86ZM403.24,89.69l-4.44-9.73,17.29-14.84-19.74,11.39-7.71-7.41,27.45-3.98-12.86,24.57Z" fill="#fff"/>
  <path d="M243.12,93.31l-25.78-24.61v25.59c0,.68-.55,1.23-1.23,1.23h-6.79c-1.23,0-2.23-1.43-2.23-3.2v-41.24c0-2.08,1.61-3.32,2.82-2.18l25.42,23.96v-24.73c0-1.04.84-1.88,1.88-1.88h4.55c2.03,0,3.67,2.36,3.67,5.27v40.01c0,1.71-1.33,2.73-2.32,1.79Z" fill="url(#linear-gradient-2)"/>
  <circle cx="442.26" cy="92.24" r="6.05" fill="url(#linear-gradient-3)"/>
  <path d="M326.39,28.73c22.87-29.85,63.08-36.71,90.85-18.34,22.8,15.08,34.14,45.13,27.49,74.58" fill="none" stroke="#fff" stroke-linecap="round" stroke-miterlimit="10" stroke-width=".5"/>
  <path d="M84.3,101.34c-.52-.63-.95-1.32-1.36-2.02-.82-1.41-.48-3.27.75-4.56,1.97-2.05,5.33-1.78,6.85.68,2.06,3.35,4.15,6.68,6.34,9.94,1.69,2.51,0,5.45-2.42,6.15-1.79.52-3.79-.14-4.7-1.54-.63-1.34-1.51-2.54-2.25-3.82-.98-1.68-2.08-3.27-3.22-4.85Z" fill="#fff"/>
  <path d="M75.26,46.92c-11.79-2.72-25.56,4.01-29.04,18.62-3.51,13.77,5.19,26.62,17.36,29.52,12.79,3.05,25.6-4.97,29.04-18.46,3.17-12.46-3.58-26.5-17.35-29.68ZM88.03,75.91c-1.52,4.43-4.35,7.9-8.75,10.77-7.36,4.74-17.58,3.53-23.87-3.34-5.47-5.97-7.01-14.79-2.84-22.46,4.56-8.39,14.66-12.25,23.7-9.18,9.31,3.17,15.35,13.77,11.76,24.22Z" fill="#fff"/>
  <path d="M57.4,61.19c2.71-3.77,7.04-6.46,12.78-6.58.9-.02,1.8.08,2.67.35,1.22.38,1.9,1.38,1.72,2.55-.2,1.29-1.1,2.03-2.45,1.97-.94-.04-1.87-.11-2.81-.02-6.34.62-10.29,5.87-10.63,10.93-.05.72.02,1.42.13,2.13.1.64.08,1.27-.32,1.84-.48.69-1.09,1.16-1.97,1.1-.93-.07-1.62-.54-2.04-1.39-.22-.45-.28-.93-.33-1.42-.3-3.65.68-7.54,3.25-11.46Z" fill="url(#linear-gradient-4)"/>
</svg>