<?xml version="1.0" encoding="UTF-8"?>
<svg id="Layer_1" xmlns="http://www.w3.org/2000/svg" xmlns:xlink="http://www.w3.org/1999/xlink" viewBox="0 0 471 117.36">
  <defs>
    <linearGradient id="linear-gradient" x1="330.93" y1="41.8" x2="350.06" y2="41.8" gradientUnits="userSpaceOnUse">
      <stop offset="0" stop-color="#44b65e"/>
      <stop offset="1" stop-color="#0ada50"/>
    </linearGradient>
    <linearGradient id="linear-gradient-2" x1="217.57" y1="74.46" x2="257.86" y2="74.46" xlink:href="#linear-gradient"/>
    <linearGradient id="linear-gradient-3" x1="458.28" y1="96.89" x2="471" y2="96.89" xlink:href="#linear-gradient"/>
    <linearGradient id="linear-gradient-4" x1="56.83" y1="68.32" x2="78.37" y2="68.32" xlink:href="#linear-gradient"/>
  </defs>
  <path d="M.53,99.15l4.52-5.41c1.47-1.76,4.13-2.07,5.85-.56,2.21,1.95,4.54,2.95,7.07,2.95,4.78,0,7.34-2.89,7.34-8.41v-33.06H5.36v-.48c0-6.7,5.43-12.14,12.14-12.14h23.97v44.69c0,15.01-7.75,22.43-22.26,22.43-7.57,0-14.08-2.41-18.55-6.92-.83-.84-.89-2.18-.13-3.09Z"/>
  <path d="M156.76,77.34c0,14.26-9.81,23.17-21.93,23.17-5.85,0-10.22-1.65-13.19-5.19v4.45h-14.92v-45.51c0-8.65,7.01-15.67,15.67-15.67h0v20.37c3.05-3.13,7.26-4.62,12.45-4.62,12.12,0,21.93,8.82,21.93,23ZM140.93,77.34c0-6.76-4.12-10.55-9.4-10.55s-9.4,3.79-9.4,10.55,4.12,10.72,9.4,10.72,9.4-3.88,9.4-10.72Z"/>
  <path d="M162.56,91.14h0c1.36-3.09,4.84-4.56,8.05-3.51,3.22,1.06,6.8,1.65,10.16,1.65,5.28,0,7.01-1.15,7.01-3.05,0-6.02-26.38.83-26.38-17.07,0-8.41,7.75-14.84,21.77-14.84,4.01,0,8.29.54,12.01,1.58,3.1.86,4.73,4.26,3.43,7.2l-.41.93c-1.1,2.5-3.93,3.63-6.52,2.77-2.93-.98-5.79-1.34-8.43-1.34-5.28,0-7.17,1.49-7.17,3.13,0,6.18,26.3-.5,26.3,17.23,0,8.24-7.59,14.68-22.1,14.68-5.13,0-10.37-.87-14.57-2.27-2.93-.98-4.37-4.27-3.13-7.1Z"/>
  <path d="M324.68,51.62l-20.1,46.91c-.32.75-1.06,1.24-1.88,1.24h-13.38c-.82,0-1.56-.49-1.88-1.24l-20.04-46.91c-1.93-4.53,1.39-9.56,6.31-9.56h7.25l13.8,33.12c.7,1.67,3.06,1.68,3.77.01l14.1-33.13h5.75c4.93,0,8.25,5.04,6.31,9.57Z"/>
  <path d="M330.93,41.8c0-4.7,3.79-8.33,9.56-8.33s9.57,3.38,9.57,8.08c0,4.95-3.79,8.58-9.57,8.58s-9.56-3.63-9.56-8.33Z" fill="url(#linear-gradient)"/>
  <path d="M332.66,55.08h15.67v36.91c0,4.3-3.48,7.78-7.78,7.78h-7.88v-44.69Z"/>
  <path d="M357.21,90.68l.08-.18c1.2-2.73,4.29-4.09,7.1-3.09,3.38,1.2,7.23,1.88,10.82,1.88,5.28,0,7.01-1.15,7.01-3.05,0-6.02-26.38.83-26.38-17.07,0-8.41,7.75-14.84,21.77-14.84,3.82,0,7.89.49,11.5,1.44,3.39.89,5.14,4.63,3.73,7.83h0c-1.16,2.64-4.13,4.05-6.87,3.16-2.88-.94-5.68-1.29-8.27-1.29-5.28,0-7.17,1.49-7.17,3.13,0,6.18,26.3-.5,26.3,17.23,0,8.24-7.59,14.68-22.1,14.68-4.93,0-9.97-.8-14.09-2.11-3.2-1.02-4.76-4.64-3.42-7.71Z"/>
  <path d="M445.72,55.08h-10.56v3.88c-3.05-3.13-7.26-4.62-12.45-4.62-12.12,0-21.93,8.82-21.93,23s9.81,23.17,21.93,23.17c5.85,0,10.22-1.65,13.19-5.19v4.45h14.92v-39.58c0-2.82-2.29-5.1-5.1-5.1ZM423.65,94.22l-4.66-10.23,18.17-15.59-20.74,11.97-8.1-7.79,28.84-4.18-13.51,25.82Z"/>
  <path d="M255.42,98.02l-27.08-25.85v26.89c0,.71-.58,1.29-1.29,1.29h-7.14c-1.29,0-2.34-1.5-2.34-3.36v-43.33c0-2.18,1.69-3.49,2.96-2.3l26.71,25.17v-25.98c0-1.09.89-1.98,1.98-1.98h4.78c2.13,0,3.85,2.48,3.85,5.53v42.04c0,1.8-1.39,2.87-2.44,1.88Z" fill="url(#linear-gradient-2)"/>
  <circle cx="464.64" cy="96.89" r="6.36" fill="url(#linear-gradient-3)"/>
  <path d="M342.91,30.18c24.03-31.37,66.27-38.57,95.45-19.27,23.96,15.85,35.86,47.41,28.89,78.35" fill="none" stroke="#000" stroke-linecap="round" stroke-miterlimit="10" stroke-width=".5"/>
  <path d="M88.56,106.45c-.55-.66-1-1.38-1.42-2.12-.86-1.48-.51-3.43.79-4.79,2.07-2.15,5.6-1.87,7.2.71,2.17,3.52,4.36,7.02,6.66,10.45,1.77,2.64,0,5.73-2.54,6.47-1.88.55-3.99-.15-4.94-1.61-.66-1.41-1.58-2.67-2.37-4.02-1.03-1.76-2.19-3.44-3.38-5.09Z" fill="#020303"/>
  <path d="M79.06,49.28c-12.38-2.86-26.86,4.21-30.51,19.56-3.68,14.47,5.45,27.97,18.23,31.02,13.44,3.21,26.9-5.22,30.51-19.4,3.33-13.09-3.76-27.84-18.23-31.18ZM92.49,79.74c-1.6,4.65-4.57,8.3-9.19,11.31-7.73,4.97-18.47,3.7-25.08-3.51-5.74-6.27-7.36-15.54-2.98-23.6,4.79-8.81,15.4-12.87,24.9-9.64,9.78,3.33,16.12,14.47,12.35,25.44Z"/>
  <path d="M60.3,64.28c2.84-3.96,7.39-6.78,13.43-6.91.95-.02,1.89.08,2.81.36,1.29.4,1.99,1.45,1.8,2.68-.21,1.35-1.16,2.13-2.57,2.07-.99-.05-1.97-.12-2.96-.02-6.66.65-10.81,6.16-11.17,11.49-.05.75.03,1.5.14,2.24.1.67.08,1.34-.34,1.93-.51.72-1.15,1.22-2.07,1.15-.97-.07-1.7-.57-2.15-1.46-.23-.47-.3-.98-.34-1.49-.32-3.84.72-7.93,3.41-12.04Z" fill="url(#linear-gradient-4)"/>
</svg>